0
SECTION
2
HEADER
9
$INSUNITS
70
4
9
$ACADVER
1
AC1014
9
$HANDSEED
5
FFFF
0
ENDSEC
0
SECTION
2
TABLES
0
TABLE
2
VPORT
5
8
100
AcDbSymbolTable
0
ENDTAB
0
TABLE
2
LTYPE
5
5
100
AcDbSymbolTable
0
LTYPE
5
14
100
AcDbSymbolTableRecord
100
AcDbLinetypeTableRecord
2
BYBLOCK
70
0
0
LTYPE
5
15
100
AcDbSymbolTableRecord
100
AcDbLinetypeTableRecord
2
BYLAYER
70
0
0
ENDTAB
0
TABLE
2
LAYER
5
2
100
AcDbSymbolTable
70
2
0
LAYER
5
50
100
AcDbSymbolTableRecord
100
AcDbLayerTableRecord
2
0
70
0
6
CONTINUOUS
0
ENDTAB
0
TABLE
2
STYLE
5
3
100
AcDbSymbolTable
70
1
0
STYLE
5
11
100
AcDbSymbolTableRecord
100
AcDbTextStyleTableRecord
2
STANDARD
70
0
0
ENDTAB
0
TABLE
2
VIEW
5
6
100
AcDbSymbolTable
70
0
0
ENDTAB
0
TABLE
2
UCS
5
7
100
AcDbSymbolTable
70
0
0
ENDTAB
0
TABLE
2
APPID
5
9
100
AcDbSymbolTable
70
2
0
APPID
5
12
100
AcDbSymbolTableRecord
100
AcDbRegAppTableRecord
2
ACAD
70
0
0
ENDTAB
0
TABLE
2
DIMSTYLE
5
A
100
AcDbSymbolTable
70
1
0
ENDTAB
0
TABLE
2
BLOCK_RECORD
5
1
100
AcDbSymbolTable
70
1
0
BLOCK_RECORD
5
1F
100
AcDbSymbolTableRecord
100
AcDbBlockTableRecord
2
*MODEL_SPACE
0
BLOCK_RECORD
5
1B
100
AcDbSymbolTableRecord
100
AcDbBlockTableRecord
2
*PAPER_SPACE
0
ENDTAB
0
ENDSEC
0
SECTION
2
BLOCKS
0
BLOCK
5
20
100
AcDbEntity
100
AcDbBlockBegin
2
*MODEL_SPACE
0
ENDBLK
5
21
100
AcDbEntity
100
AcDbBlockEnd
0
BLOCK
5
1C
100
AcDbEntity
100
AcDbBlockBegin
2
*PAPER_SPACE
0
ENDBLK
5
1D
100
AcDbEntity
100
AcDbBlockEnd
0
ENDSEC
0
SECTION
2
ENTITIES
0
CIRCLE
5
100
100
AcDbEntity
8
0
100
AcDbCircle
10
7.6299330901768636
20
-1.869155635363694
30
0
40
1.5999999999999992
0
CIRCLE
5
101
100
AcDbEntity
8
0
100
AcDbCircle
10
37.629933596816294
20
-1.8691556353636496
30
0
40
1.599999999999997
0
CIRCLE
5
102
100
AcDbEntity
8
0
100
AcDbCircle
10
84.849933596815944
20
-1.8691556353636363
30
0
40
1.6000000000000014
0
CIRCLE
5
103
100
AcDbEntity
8
0
100
AcDbCircle
10
84.849933596815944
20
28.130844364636349
30
0
40
1.6000000000000014
0
CIRCLE
5
104
100
AcDbEntity
8
0
100
AcDbCircle
10
54.849933090176478
20
-1.8691556353636363
30
0
40
1.6000000000000014
0
CIRCLE
5
105
100
AcDbEntity
8
0
100
AcDbCircle
10
7.6299330901768636
20
28.130844364636211
30
0
40
1.5999999999999992
0
LWPOLYLINE
5
106
100
AcDbEntity
8
0
100
AcDbPolyline
90
36
70
1
43
0.0
10
93.239933552112703
20
-0.9999999999999909
10
93.239933552112717
20
-6.0000000745057971
10
-0.76006635848036019
20
-6.0000000894069743
10
-0.76006635848036019
20
-1.0000000149011661
10
-3.7600664031838438
20
-1.0000000149011667
10
-3.7600664031838438
20
9.0000001341104454
10
-0.76006635848036019
20
9.0000001341104436
10
-0.76006635848036019
20
19.000000283122059
10
-3.7600664031838438
20
19.000000283122059
10
-3.7600664031838438
20
29.000000432133671
10
-0.76006635848036019
20
29.000000432133671
10
-0.76006635848036019
20
34.000000506639473
10
14.239933596816156
20
34.000000000000007
10
14.239933596816156
20
24.130844364636211
10
7.6299330901768636
20
24.130844364636218
10
7.6299330901768627
20
2.1308443646363067
10
11.629933090176863
20
2.1308443646363062
10
11.629933090176863
20
-1.869155635363694
10
33.629933596816301
20
-1.8691556353636554
10
33.629933596816286
20
2.1308443646363671
10
58.849933090176478
20
2.130844364636364
10
58.849933090176485
20
-1.8691556353636363
10
80.84993359681593
20
-1.8691556353636365
10
80.84993359681593
20
2.1308443646363635
10
84.849933596815944
20
2.1308443646363617
10
84.849933596815944
20
24.130844364636349
10
78.239933596816158
20
24.130844364636349
10
78.239933596816172
20
32.130844424240991
10
93.239933552112703
20
32.130844424240991
10
93.239933552112703
20
29.000000447034843
10
96.239933596816186
20
29.00000044703485
10
96.239933596816186
20
19.000000298023235
10
93.239933552112703
20
19.000000298023231
10
93.239933552112703
20
9.0000001490116208
10
96.239933596816186
20
9.0000001490116208
10
96.239933596816186
20
-0.99999999999999112
0
ENDSEC
0
SECTION
2
OBJECTS
0
DICTIONARY
5
C
100
AcDbDictionary
3
ACAD_GROUP
350
D
3
ACAD_MLINESTYLE
350
17
0
DICTIONARY
5
D
100
AcDbDictionary
0
DICTIONARY
5
1A
330
C
100
AcDbDictionary
0
DICTIONARY
5
17
100
AcDbDictionary
0
ENDSEC
0
EOF
