0
SECTION
2
HEADER
9
$INSUNITS
70
4
9
$ACADVER
1
AC1014
9
$HANDSEED
5
FFFF
0
ENDSEC
0
SECTION
2
TABLES
0
TABLE
2
VPORT
5
8
100
AcDbSymbolTable
0
ENDTAB
0
TABLE
2
LTYPE
5
5
100
AcDbSymbolTable
0
LTYPE
5
14
100
AcDbSymbolTableRecord
100
AcDbLinetypeTableRecord
2
BYBLOCK
70
0
0
LTYPE
5
15
100
AcDbSymbolTableRecord
100
AcDbLinetypeTableRecord
2
BYLAYER
70
0
0
ENDTAB
0
TABLE
2
LAYER
5
2
100
AcDbSymbolTable
70
2
0
LAYER
5
50
100
AcDbSymbolTableRecord
100
AcDbLayerTableRecord
2
0
70
0
6
CONTINUOUS
0
ENDTAB
0
TABLE
2
STYLE
5
3
100
AcDbSymbolTable
70
1
0
STYLE
5
11
100
AcDbSymbolTableRecord
100
AcDbTextStyleTableRecord
2
STANDARD
70
0
0
ENDTAB
0
TABLE
2
VIEW
5
6
100
AcDbSymbolTable
70
0
0
ENDTAB
0
TABLE
2
UCS
5
7
100
AcDbSymbolTable
70
0
0
ENDTAB
0
TABLE
2
APPID
5
9
100
AcDbSymbolTable
70
2
0
APPID
5
12
100
AcDbSymbolTableRecord
100
AcDbRegAppTableRecord
2
ACAD
70
0
0
ENDTAB
0
TABLE
2
DIMSTYLE
5
A
100
AcDbSymbolTable
70
1
0
ENDTAB
0
TABLE
2
BLOCK_RECORD
5
1
100
AcDbSymbolTable
70
1
0
BLOCK_RECORD
5
1F
100
AcDbSymbolTableRecord
100
AcDbBlockTableRecord
2
*MODEL_SPACE
0
BLOCK_RECORD
5
1B
100
AcDbSymbolTableRecord
100
AcDbBlockTableRecord
2
*PAPER_SPACE
0
ENDTAB
0
ENDSEC
0
SECTION
2
BLOCKS
0
BLOCK
5
20
100
AcDbEntity
100
AcDbBlockBegin
2
*MODEL_SPACE
0
ENDBLK
5
21
100
AcDbEntity
100
AcDbBlockEnd
0
BLOCK
5
1C
100
AcDbEntity
100
AcDbBlockBegin
2
*PAPER_SPACE
0
ENDBLK
5
1D
100
AcDbEntity
100
AcDbBlockEnd
0
ENDSEC
0
SECTION
2
ENTITIES
0
LWPOLYLINE
5
100
100
AcDbEntity
8
0
100
AcDbPolyline
90
4
70
1
43
0.0
10
101.99999999999895
20
-19.000000000000007
10
101.99999999999895
20
-16.000000000000007
10
94.999999999998934
20
-16.000000000000011
10
94.999999999998934
20
-19.000000000000011
0
LWPOLYLINE
5
101
100
AcDbEntity
8
0
100
AcDbPolyline
90
4
70
1
43
0.0
10
-12.000000000001521
20
-16.000000000000057
10
-12.000000000001521
20
-19.00000000000006
10
-5.0000000000015277
20
-19.000000000000053
10
-5.0000000000015277
20
-16.000000000000053
0
LWPOLYLINE
5
102
100
AcDbEntity
8
0
100
AcDbPolyline
90
4
70
1
43
0.0
10
9.0000001341104436
20
-9.9999999999999538
10
9.0000001341104436
20
-6.9999999999999529
10
-1.0000000149011674
20
-6.999999999999952
10
-1.000000014901169
20
-9.999999999999952
0
LWPOLYLINE
5
103
100
AcDbEntity
8
0
100
AcDbPolyline
90
4
70
1
43
0.0
10
29.000000432133671
20
-9.9999999999999574
10
29.000000432133671
20
-6.9999999999999574
10
19.000000283122056
20
-6.9999999999999556
10
19.000000283122059
20
-9.9999999999999556
0
LWPOLYLINE
5
104
100
AcDbEntity
8
0
100
AcDbPolyline
90
4
70
1
43
0.0
10
94.421614351050565
20
-0.49999997019761655
42
-0.99999999999999989
10
94.421614351050565
20
-4.5000000298022611
10
34.741614351050885
20
-4.5000000298022611
42
-0.99999999999999989
10
34.74161435105087
20
-0.49999997019761655
0
LINE
5
105
100
AcDbEntity
8
0
100
AcDbLine
10
34.741614351050863
20
-11.999999970197679
30
0
11
94.421614351050565
21
-11.999999970197679
31
0
0
ARC
5
106
100
AcDbEntity
8
0
100
AcDbCircle
10
94.421614351050565
20
-14.000000000000002
30
0
40
2.0000000000000107
100
AcDbArc
50
-90
51
90
0
LINE
5
107
100
AcDbEntity
8
0
100
AcDbLine
10
94.421614351050565
20
-16.000000000000011
30
0
11
34.74161435105087
21
-16.000000000000007
31
0
0
ARC
5
108
100
AcDbEntity
8
0
100
AcDbCircle
10
34.74161435105087
20
-14.000000000000002
30
0
40
2.0000000298023224
100
AcDbArc
50
90.000000000000199
51
270
0
LWPOLYLINE
5
109
100
AcDbEntity
8
0
100
AcDbPolyline
90
4
70
1
43
0.0
10
94.421614351050565
20
-6.249999999999968
10
34.741614351050863
20
-6.249999999999968
42
0.99999999999999989
10
34.74161435105087
20
-10.249999999999964
10
94.421614351050565
20
-10.249999999999964
42
0.99999999999999989
0
LWPOLYLINE
5
110
100
AcDbEntity
8
0
100
AcDbPolyline
90
32
70
1
43
0.0
10
-15
20
-12.000000000000002
10
-12.000000000000009
20
-12.000000000000002
10
-12.000000000000004
20
-1.9999999999999396
10
-15
20
-1.9999999999999396
10
-15.000000000000002
20
2.50000000000006
10
-2.2204460492503131e-15
20
2.5000000000000533
10
0
20
5.500000000000056
10
10.000000000000002
20
5.5000000000000515
10
9.9999999999999982
20
2.5000000000000488
10
19.999999999999996
20
2.5000000000000444
10
20
20
5.5000000000000471
10
29.999999999999982
20
5.5000000000000586
10
29.999999999999982
20
2.5000000000000577
10
40
20
2.5000000000000355
10
40
20
5.5000000000000355
10
50
20
5.5000000000000338
10
50
20
2.5000000000000311
10
60
20
2.5000000000000266
10
60
20
5.5000000000000266
10
70
20
5.5000000000000249
10
70
20
2.5000000000000222
10
80
20
2.5000000000000178
10
80
20
5.5000000000000178
10
90.000000000000014
20
5.5000000000000142
10
90.000000000000014
20
2.5000000000000133
10
105.00000000000001
20
2.5000000000000067
10
104.99999999999999
20
-2.000007422857506
10
102.00000120179547
20
-2.0000072107759337
10
102.00000049485665
20
-12.000007210775996
10
104.99999999999999
20
-12.000007422857568
10
104.99999999999999
20
-22
10
-15
20
-22
0
ENDSEC
0
SECTION
2
OBJECTS
0
DICTIONARY
5
C
100
AcDbDictionary
3
ACAD_GROUP
350
D
3
ACAD_MLINESTYLE
350
17
0
DICTIONARY
5
D
100
AcDbDictionary
0
DICTIONARY
5
1A
330
C
100
AcDbDictionary
0
DICTIONARY
5
17
100
AcDbDictionary
0
ENDSEC
0
EOF
