0
SECTION
2
HEADER
9
$INSUNITS
70
4
9
$ACADVER
1
AC1014
9
$HANDSEED
5
FFFF
0
ENDSEC
0
SECTION
2
TABLES
0
TABLE
2
VPORT
5
8
100
AcDbSymbolTable
0
ENDTAB
0
TABLE
2
LTYPE
5
5
100
AcDbSymbolTable
0
LTYPE
5
14
100
AcDbSymbolTableRecord
100
AcDbLinetypeTableRecord
2
BYBLOCK
70
0
0
LTYPE
5
15
100
AcDbSymbolTableRecord
100
AcDbLinetypeTableRecord
2
BYLAYER
70
0
0
ENDTAB
0
TABLE
2
LAYER
5
2
100
AcDbSymbolTable
70
2
0
LAYER
5
50
100
AcDbSymbolTableRecord
100
AcDbLayerTableRecord
2
0
70
0
6
CONTINUOUS
0
ENDTAB
0
TABLE
2
STYLE
5
3
100
AcDbSymbolTable
70
1
0
STYLE
5
11
100
AcDbSymbolTableRecord
100
AcDbTextStyleTableRecord
2
STANDARD
70
0
0
ENDTAB
0
TABLE
2
VIEW
5
6
100
AcDbSymbolTable
70
0
0
ENDTAB
0
TABLE
2
UCS
5
7
100
AcDbSymbolTable
70
0
0
ENDTAB
0
TABLE
2
APPID
5
9
100
AcDbSymbolTable
70
2
0
APPID
5
12
100
AcDbSymbolTableRecord
100
AcDbRegAppTableRecord
2
ACAD
70
0
0
ENDTAB
0
TABLE
2
DIMSTYLE
5
A
100
AcDbSymbolTable
70
1
0
ENDTAB
0
TABLE
2
BLOCK_RECORD
5
1
100
AcDbSymbolTable
70
1
0
BLOCK_RECORD
5
1F
100
AcDbSymbolTableRecord
100
AcDbBlockTableRecord
2
*MODEL_SPACE
0
BLOCK_RECORD
5
1B
100
AcDbSymbolTableRecord
100
AcDbBlockTableRecord
2
*PAPER_SPACE
0
ENDTAB
0
ENDSEC
0
SECTION
2
BLOCKS
0
BLOCK
5
20
100
AcDbEntity
100
AcDbBlockBegin
2
*MODEL_SPACE
0
ENDBLK
5
21
100
AcDbEntity
100
AcDbBlockEnd
0
BLOCK
5
1C
100
AcDbEntity
100
AcDbBlockBegin
2
*PAPER_SPACE
0
ENDBLK
5
1D
100
AcDbEntity
100
AcDbBlockEnd
0
ENDSEC
0
SECTION
2
ENTITIES
0
CIRCLE
5
100
100
AcDbEntity
8
0
100
AcDbCircle
10
-69.849933596815944
20
13.130844424241005
30
0
40
14.000000000000002
0
CIRCLE
5
101
100
AcDbEntity
8
0
100
AcDbCircle
10
-22.629933596816308
20
13.130844424240877
30
0
40
14.000000000000002
0
CIRCLE
5
102
100
AcDbEntity
8
0
100
AcDbCircle
10
-35.401323731835987
20
47.800000000000004
30
0
40
2.6000000000000001
0
CIRCLE
5
103
100
AcDbEntity
8
0
100
AcDbCircle
10
-55.341323731835992
20
47.800000000000004
30
0
40
2.6000000000000001
0
CIRCLE
5
104
100
AcDbEntity
8
0
100
AcDbCircle
10
-43.861323731835995
20
25.460000000000001
30
0
40
2.6000000000000001
0
CIRCLE
5
105
100
AcDbEntity
8
0
100
AcDbCircle
10
-43.861323731835995
20
17.840000000000003
30
0
40
2.6000000000000001
0
CIRCLE
5
106
100
AcDbEntity
8
0
100
AcDbCircle
10
-43.861323731835995
20
10.220000000000004
30
0
40
2.6000000000000001
0
LWPOLYLINE
5
107
100
AcDbEntity
8
0
100
AcDbPolyline
90
76
70
1
43
0.0
10
-93.239933596816158
20
80
10
-93.239933596816158
20
90.000000000000014
10
-96.239933596816172
20
90.000000000000014
10
-96.239933596816172
20
105.00000000000001
10
-81.239933596816172
20
105.00000000000001
10
-81.239933596816172
20
102.00000000000001
10
-71.239933596816172
20
102.00000000000001
10
-71.239933596816172
20
105
10
-61.239933596816165
20
105
10
-61.239933596816165
20
102.00000000000001
10
-51.239933596816165
20
102.00000000000001
10
-51.239933596816165
20
105
10
-41.239933596816165
20
105
10
-41.239933596816165
20
102.00000000000001
10
-31.239933596816165
20
102.00000000000001
10
-31.239933596816165
20
105
10
-21.239933596816165
20
105
10
-21.239933596816165
20
102.00000000000001
10
-11.239933596816165
20
102.00000151991844
10
-11.239933596816165
20
105.00000000000001
10
3.7600664031838349
20
105.00000000000001
10
3.7600664031838349
20
90.000000000000014
10
0.76006640318386332
20
90.000000000000014
10
0.76006640318384555
20
80
10
3.7600664031838349
20
80
10
3.7600664031838349
20
70
10
0.76006640318384555
20
70
10
0.76006640318384555
20
60
10
3.7600664031838349
20
60
10
3.7600664031838349
20
50
10
0.76006640318384555
20
50
10
0.76006640318384555
20
40
10
3.7600664031838349
20
40
10
3.7600664031838349
20
30
10
0.76006640318384555
20
30
10
0.76006640318384555
20
20
10
3.7600664031838349
20
20
10
3.7600664031838349
20
10
10
0.76006640318384555
20
10
10
0.76006640318384555
20
0
10
3.7600664031838349
20
0
10
3.7600664031838349
20
-15
10
-11.239933596816165
20
-15
10
-11.239933596816165
20
-12.000000000000011
10
-21.239933596816165
20
-12.000000000000011
10
-21.239933596816165
20
-15
10
-31.239933596816165
20
-15
10
-31.239933596816165
20
-12.000000000000011
10
-41.239933596816165
20
-12.000000000000011
10
-41.239933596816165
20
-15
10
-51.239933596816165
20
-15
10
-51.239933596816165
20
-12.000000000000011
10
-61.239933596816165
20
-12.000000000000011
10
-61.239933596816165
20
-15
10
-71.239933596816172
20
-15
10
-71.239933596816172
20
-12.000000000000011
10
-81.239933596816172
20
-12.000000000000011
10
-81.239933596816172
20
-15
10
-96.239933596816172
20
-15
10
-96.239933596816172
20
0
10
-93.239933596816158
20
0
10
-93.239933596816158
20
10
10
-96.239933596816172
20
10
10
-96.239933596816172
20
20
10
-93.239933596816158
20
20
10
-93.239933596816158
20
30
10
-96.239933596816172
20
30
10
-96.239933596816172
20
40
10
-93.239933596816158
20
40
10
-93.239933596816158
20
50
10
-96.239933596816172
20
50
10
-96.239933596816172
20
60
10
-93.239933596816158
20
60
10
-93.239933596816158
20
70
10
-96.239933596816172
20
70
10
-96.239933596816172
20
80
0
ENDSEC
0
SECTION
2
OBJECTS
0
DICTIONARY
5
C
100
AcDbDictionary
3
ACAD_GROUP
350
D
3
ACAD_MLINESTYLE
350
17
0
DICTIONARY
5
D
100
AcDbDictionary
0
DICTIONARY
5
1A
330
C
100
AcDbDictionary
0
DICTIONARY
5
17
100
AcDbDictionary
0
ENDSEC
0
EOF
