0
SECTION
2
HEADER
9
$INSUNITS
70
4
9
$ACADVER
1
AC1014
9
$HANDSEED
5
FFFF
0
ENDSEC
0
SECTION
2
TABLES
0
TABLE
2
VPORT
5
8
100
AcDbSymbolTable
0
ENDTAB
0
TABLE
2
LTYPE
5
5
100
AcDbSymbolTable
0
LTYPE
5
14
100
AcDbSymbolTableRecord
100
AcDbLinetypeTableRecord
2
BYBLOCK
70
0
0
LTYPE
5
15
100
AcDbSymbolTableRecord
100
AcDbLinetypeTableRecord
2
BYLAYER
70
0
0
ENDTAB
0
TABLE
2
LAYER
5
2
100
AcDbSymbolTable
70
2
0
LAYER
5
50
100
AcDbSymbolTableRecord
100
AcDbLayerTableRecord
2
0
70
0
6
CONTINUOUS
0
ENDTAB
0
TABLE
2
STYLE
5
3
100
AcDbSymbolTable
70
1
0
STYLE
5
11
100
AcDbSymbolTableRecord
100
AcDbTextStyleTableRecord
2
STANDARD
70
0
0
ENDTAB
0
TABLE
2
VIEW
5
6
100
AcDbSymbolTable
70
0
0
ENDTAB
0
TABLE
2
UCS
5
7
100
AcDbSymbolTable
70
0
0
ENDTAB
0
TABLE
2
APPID
5
9
100
AcDbSymbolTable
70
2
0
APPID
5
12
100
AcDbSymbolTableRecord
100
AcDbRegAppTableRecord
2
ACAD
70
0
0
ENDTAB
0
TABLE
2
DIMSTYLE
5
A
100
AcDbSymbolTable
70
1
0
ENDTAB
0
TABLE
2
BLOCK_RECORD
5
1
100
AcDbSymbolTable
70
1
0
BLOCK_RECORD
5
1F
100
AcDbSymbolTableRecord
100
AcDbBlockTableRecord
2
*MODEL_SPACE
0
BLOCK_RECORD
5
1B
100
AcDbSymbolTableRecord
100
AcDbBlockTableRecord
2
*PAPER_SPACE
0
ENDTAB
0
ENDSEC
0
SECTION
2
BLOCKS
0
BLOCK
5
20
100
AcDbEntity
100
AcDbBlockBegin
2
*MODEL_SPACE
0
ENDBLK
5
21
100
AcDbEntity
100
AcDbBlockEnd
0
BLOCK
5
1C
100
AcDbEntity
100
AcDbBlockBegin
2
*PAPER_SPACE
0
ENDBLK
5
1D
100
AcDbEntity
100
AcDbBlockEnd
0
ENDSEC
0
SECTION
2
ENTITIES
0
LWPOLYLINE
5
100
100
AcDbEntity
8
0
100
AcDbPolyline
90
4
70
1
43
0.0
10
12.000000000000256
20
-19.000000000000007
10
12.000000000000256
20
-16.000000000000007
10
5.0000000000002442
20
-16.000000000000011
10
5.0000000000002442
20
-19.000000000000011
0
LWPOLYLINE
5
101
100
AcDbEntity
8
0
100
AcDbPolyline
90
4
70
1
43
0.0
10
-19.000000298023217
20
-9.9999999999999556
10
-19.000000298023217
20
-6.9999999999999556
10
-29.000000447034829
20
-6.9999999999999574
10
-29.000000447034829
20
-9.9999999999999574
0
LWPOLYLINE
5
102
100
AcDbEntity
8
0
100
AcDbPolyline
90
4
70
1
43
0.0
10
1.0000000000000062
20
-9.999999999999952
10
1.0000000000000053
20
-6.999999999999952
10
-9.0000001490116066
20
-6.9999999999999529
10
-9.0000001490116048
20
-9.9999999999999538
0
LWPOLYLINE
5
103
100
AcDbEntity
8
0
100
AcDbPolyline
90
4
70
1
43
0.0
10
-101.99999999999997
20
-16.000000000000007
10
-101.99999999999997
20
-19.000000000000007
10
-94.999999999999986
20
-19
10
-94.999999999999986
20
-15.999999999999998
0
LWPOLYLINE
5
104
100
AcDbEntity
8
0
100
AcDbPolyline
90
8
70
1
43
0.0
10
-18.000000223517407
20
-14.999999999999927
10
-25.000000223517411
20
-14.999999999999927
10
-25.000000223517411
20
-16.599999999999927
10
-3.000000223517409
20
-16.599999999999923
10
-3.0000002235174095
20
-14.999999999999925
10
-10.000000223517409
20
-14.999999999999925
10
-10.000000223517409
20
-11.199999999999925
10
-18.000000223517411
20
-11.199999999999925
0
LWPOLYLINE
5
105
100
AcDbEntity
8
0
100
AcDbPolyline
90
4
70
1
43
0.0
10
-56.041614351052694
20
-4.3000000000036955
10
-56.041614351052679
20
-11.000000000003695
10
-40.141614351052681
20
-11.000000000003649
10
-40.141614351052695
20
-4.3000000000036476
0
LWPOLYLINE
5
106
100
AcDbEntity
8
0
100
AcDbPolyline
90
32
70
1
43
0.0
10
12.000000000000021
20
-12.000000000000002
10
15.000000000000014
20
-12.000000000000002
10
15.000000000000018
20
-22
10
-104.99999999999997
20
-22
10
-104.99999999999997
20
-12.000007422857568
10
-102.00000046236619
20
-12.000007210775955
10
-102.00000116930498
20
-2.0000072107759443
10
-104.99999999999997
20
-2.0000074228575055
10
-105
20
2.5000000000000067
10
-90
20
2.5000000000000129
10
-90
20
5.5000000000000142
10
-79.999999999999986
20
5.5000000000000178
10
-79.999999999999986
20
2.5000000000000178
10
-69.999999999999986
20
2.5000000000000226
10
-69.999999999999986
20
5.500000000000024
10
-59.999999999999993
20
5.5000000000000266
10
-59.999999999999993
20
2.5000000000000266
10
-49.999999999999993
20
2.5000000000000315
10
-49.999999999999986
20
5.5000000000000329
10
-39.999999999999986
20
5.5000000000000355
10
-39.999999999999986
20
2.5000000000000355
10
-29.999999999999972
20
2.5000000000000577
10
-29.999999999999972
20
5.5000000000000586
10
-19.999999999999986
20
5.5000000000000462
10
-19.999999999999986
20
2.5000000000000449
10
-9.999999999999984
20
2.5000000000000497
10
-9.9999999999999876
20
5.5000000000000515
10
1.2712628906244588e-14
20
5.5000000000000551
10
1.5543122344752192e-14
20
2.5000000000000537
10
15.000000000000016
20
2.5000000000000604
10
15.000000000000014
20
-1.9999999999999385
10
12.000000000000018
20
-1.9999999999999396
0
ENDSEC
0
SECTION
2
OBJECTS
0
DICTIONARY
5
C
100
AcDbDictionary
3
ACAD_GROUP
350
D
3
ACAD_MLINESTYLE
350
17
0
DICTIONARY
5
D
100
AcDbDictionary
0
DICTIONARY
5
1A
330
C
100
AcDbDictionary
0
DICTIONARY
5
17
100
AcDbDictionary
0
ENDSEC
0
EOF
