0
SECTION
2
HEADER
9
$INSUNITS
70
4
9
$ACADVER
1
AC1014
9
$HANDSEED
5
FFFF
0
ENDSEC
0
SECTION
2
TABLES
0
TABLE
2
VPORT
5
8
100
AcDbSymbolTable
0
ENDTAB
0
TABLE
2
LTYPE
5
5
100
AcDbSymbolTable
0
LTYPE
5
14
100
AcDbSymbolTableRecord
100
AcDbLinetypeTableRecord
2
BYBLOCK
70
0
0
LTYPE
5
15
100
AcDbSymbolTableRecord
100
AcDbLinetypeTableRecord
2
BYLAYER
70
0
0
ENDTAB
0
TABLE
2
LAYER
5
2
100
AcDbSymbolTable
70
2
0
LAYER
5
50
100
AcDbSymbolTableRecord
100
AcDbLayerTableRecord
2
0
70
0
6
CONTINUOUS
0
ENDTAB
0
TABLE
2
STYLE
5
3
100
AcDbSymbolTable
70
1
0
STYLE
5
11
100
AcDbSymbolTableRecord
100
AcDbTextStyleTableRecord
2
STANDARD
70
0
0
ENDTAB
0
TABLE
2
VIEW
5
6
100
AcDbSymbolTable
70
0
0
ENDTAB
0
TABLE
2
UCS
5
7
100
AcDbSymbolTable
70
0
0
ENDTAB
0
TABLE
2
APPID
5
9
100
AcDbSymbolTable
70
2
0
APPID
5
12
100
AcDbSymbolTableRecord
100
AcDbRegAppTableRecord
2
ACAD
70
0
0
ENDTAB
0
TABLE
2
DIMSTYLE
5
A
100
AcDbSymbolTable
70
1
0
ENDTAB
0
TABLE
2
BLOCK_RECORD
5
1
100
AcDbSymbolTable
70
1
0
BLOCK_RECORD
5
1F
100
AcDbSymbolTableRecord
100
AcDbBlockTableRecord
2
*MODEL_SPACE
0
BLOCK_RECORD
5
1B
100
AcDbSymbolTableRecord
100
AcDbBlockTableRecord
2
*PAPER_SPACE
0
ENDTAB
0
ENDSEC
0
SECTION
2
BLOCKS
0
BLOCK
5
20
100
AcDbEntity
100
AcDbBlockBegin
2
*MODEL_SPACE
0
ENDBLK
5
21
100
AcDbEntity
100
AcDbBlockEnd
0
BLOCK
5
1C
100
AcDbEntity
100
AcDbBlockBegin
2
*PAPER_SPACE
0
ENDBLK
5
1D
100
AcDbEntity
100
AcDbBlockEnd
0
ENDSEC
0
SECTION
2
ENTITIES
0
LINE
5
100
100
AcDbEntity
8
0
100
AcDbLine
10
-6.2399335968167327
20
-16.000000000000057
30
2.2204460492503131e-15
11
0.76006640318327712
21
-16.000000000000057
31
2.2204460492503131e-15
0
LINE
5
101
100
AcDbEntity
8
0
100
AcDbLine
10
0.76006640318327712
20
-16.000000000000057
30
2.2204460492503131e-15
11
0.76006640318385643
21
-12.000007210775953
31
2.2204460492503135e-15
0
LINE
5
102
100
AcDbEntity
8
0
100
AcDbLine
10
0.76006640318385643
20
-12.000007210775953
30
2.2204460492503135e-15
11
3.760066403183834
21
-12.000007210775953
31
2.2204460492503131e-15
0
LINE
5
103
100
AcDbEntity
8
0
100
AcDbLine
10
3.760066403183834
20
-12.000007210775953
30
2.2204460492503131e-15
11
3.7600664031838344
21
-2.0000072107759448
31
2.2204460492503131e-15
0
LINE
5
104
100
AcDbEntity
8
0
100
AcDbLine
10
3.7600664031838344
20
-2.0000072107759448
30
2.2204460492503131e-15
11
0.76006640318385665
21
-2.0000072107759443
31
2.2204460492503131e-15
0
LINE
5
105
100
AcDbEntity
8
0
100
AcDbLine
10
0.76006640318385665
20
-2.0000072107759443
30
2.2204460492503131e-15
11
0.76006640318385688
21
2.5000000000000067
31
2.2204460492503131e-15
0
LINE
5
106
100
AcDbEntity
8
0
100
AcDbLine
10
0.76006640318385688
20
2.5000000000000067
30
2.2204460492503131e-15
11
-11.239933596816154
21
2.5000000000000098
31
2.2204460492503131e-15
0
LINE
5
107
100
AcDbEntity
8
0
100
AcDbLine
10
-11.239933596816154
20
2.5000000000000098
30
2.2204460492503131e-15
11
-11.239933596816163
21
5.5000000000000107
31
2.2204460492503131e-15
0
LINE
5
108
100
AcDbEntity
8
0
100
AcDbLine
10
-11.239933596816163
20
5.5000000000000107
30
2.2204460492503131e-15
11
-21.239933596816162
21
5.5000000000000124
31
2.2204460492503131e-15
0
LINE
5
109
100
AcDbEntity
8
0
100
AcDbLine
10
-21.239933596816162
20
5.5000000000000124
30
2.2204460492503131e-15
11
-21.239933596816165
21
2.5000000000000115
31
2.2204460492503131e-15
0
LINE
5
110
100
AcDbEntity
8
0
100
AcDbLine
10
-21.239933596816165
20
2.5000000000000115
30
2.2204460492503131e-15
11
-31.239933596816165
21
2.5000000000000138
31
2.2204460492503131e-15
0
LINE
5
111
100
AcDbEntity
8
0
100
AcDbLine
10
-31.239933596816165
20
2.5000000000000138
30
2.2204460492503131e-15
11
-31.239933596816165
21
5.5000000000000062
31
2.2204460492503131e-15
0
LINE
5
112
100
AcDbEntity
8
0
100
AcDbLine
10
-31.239933596816165
20
5.5000000000000062
30
2.2204460492503131e-15
11
-41.239933596816158
21
5.5000000000000062
31
2.2204460492503131e-15
0
LINE
5
113
100
AcDbEntity
8
0
100
AcDbLine
10
-41.239933596816158
20
5.5000000000000062
30
2.2204460492503131e-15
11
-41.239933596816158
21
2.5000000000000155
31
2.2204460492503131e-15
0
LINE
5
114
100
AcDbEntity
8
0
100
AcDbLine
10
-41.239933596816158
20
2.5000000000000155
30
2.2204460492503131e-15
11
-51.239933596816158
21
2.5000000000000173
31
2.2204460492503131e-15
0
LINE
5
115
100
AcDbEntity
8
0
100
AcDbLine
10
-51.239933596816158
20
2.5000000000000173
30
2.2204460492503131e-15
11
-51.239933596816158
21
5.5000000000000062
31
2.2204460492503131e-15
0
LINE
5
116
100
AcDbEntity
8
0
100
AcDbLine
10
-51.239933596816158
20
5.5000000000000062
30
2.2204460492503131e-15
11
-61.239933596816158
21
5.5000000000000062
31
2.2204460492503131e-15
0
LINE
5
117
100
AcDbEntity
8
0
100
AcDbLine
10
-61.239933596816158
20
5.5000000000000062
30
2.2204460492503131e-15
11
-61.239933596816158
21
2.5000000000000195
31
2.2204460492503131e-15
0
LINE
5
118
100
AcDbEntity
8
0
100
AcDbLine
10
-61.239933596816158
20
2.5000000000000195
30
2.2204460492503131e-15
11
-71.239933596816158
21
2.5000000000000213
31
2.2204460492503131e-15
0
LINE
5
119
100
AcDbEntity
8
0
100
AcDbLine
10
-71.239933596816158
20
2.5000000000000213
30
2.2204460492503131e-15
11
-71.239933596816158
21
5.5000000000000062
31
2.2204460492503131e-15
0
LINE
5
120
100
AcDbEntity
8
0
100
AcDbLine
10
-71.239933596816158
20
5.5000000000000062
30
2.2204460492503131e-15
11
-81.239933596816144
21
5.5000000000000062
31
2.2204460492503131e-15
0
LINE
5
121
100
AcDbEntity
8
0
100
AcDbLine
10
-81.239933596816144
20
5.5000000000000062
30
2.2204460492503131e-15
11
-81.239933596816144
21
2.5000000000000218
31
2.2204460492503131e-15
0
LINE
5
122
100
AcDbEntity
8
0
100
AcDbLine
10
-81.239933596816144
20
2.5000000000000218
30
2.2204460492503131e-15
11
-93.239933596816144
21
2.5000000000000062
31
2.2204460492503131e-15
0
LINE
5
123
100
AcDbEntity
8
0
100
AcDbLine
10
-93.239933596816144
20
2.5000000000000062
30
2.2204460492503131e-15
11
-93.239933596816144
21
-2.000007422857506
31
2.2204460492503131e-15
0
LINE
5
124
100
AcDbEntity
8
0
100
AcDbLine
10
-93.239933596816144
20
-2.000007422857506
30
2.2204460492503131e-15
11
-96.239933596816144
21
-1.9999999999999383
31
2.2204460492503131e-15
0
LINE
5
125
100
AcDbEntity
8
0
100
AcDbLine
10
-96.239933596816144
20
-1.9999999999999383
30
2.2204460492503131e-15
11
-96.239933596816144
21
-11.999999999999996
31
2.2204460492503131e-15
0
LINE
5
126
100
AcDbEntity
8
0
100
AcDbLine
10
-96.23993359681613
20
-12.000007210775953
30
2.2204460492503131e-15
11
-93.239933596816144
21
-12
31
2.2204460492503131e-15
0
LINE
5
127
100
AcDbEntity
8
0
100
AcDbLine
10
-93.239933596816144
20
-12.000007210775953
30
2.2204460492503131e-15
11
-93.239933596815916
21
-16.000000000000004
31
2.2204460492503127e-15
0
LINE
5
128
100
AcDbEntity
8
0
100
AcDbLine
10
-93.239933596815916
20
-16.000000000000004
30
2.2204460492503127e-15
11
-86.239933596815916
21
-15.999999999999996
31
2.2204460492503131e-15
0
LINE
5
129
100
AcDbEntity
8
0
100
AcDbLine
10
-86.239933596815916
20
-15.999999999999996
30
2.2204460492503131e-15
11
-86.239933596815916
21
-18.999999999999996
31
2.2204460492503131e-15
0
LINE
5
130
100
AcDbEntity
8
0
100
AcDbLine
10
-86.239933596815916
20
-18.999999999999996
30
2.2204460492503131e-15
11
-93.239933596815916
21
-19.000000000000004
31
2.2204460492503131e-15
0
LINE
5
131
100
AcDbEntity
8
0
100
AcDbLine
10
-93.239933596815916
20
-19.000000000000004
30
2.2204460492503131e-15
11
-93.239933596816144
21
-21.999999999999996
31
2.2204460492503127e-15
0
LINE
5
132
100
AcDbEntity
8
0
100
AcDbLine
10
-93.239933596816144
20
-21.999999999999996
30
2.2204460492503127e-15
11
0.76006640318386332
21
-22.000000327825543
31
2.2204460492503131e-15
0
LINE
5
133
100
AcDbEntity
8
0
100
AcDbLine
10
0.76006640318386332
20
-22.000000327825543
30
2.2204460492503131e-15
11
0.76006640318325924
21
-19.000000000000053
31
2.2204460492503135e-15
0
LINE
5
134
100
AcDbEntity
8
0
100
AcDbLine
10
0.76006640318325924
20
-19.000000000000053
30
2.2204460492503135e-15
11
-6.2399335968167504
21
-19.000000000000057
31
2.2204460492503131e-15
0
LINE
5
135
100
AcDbEntity
8
0
100
AcDbLine
10
-6.2399335968167504
20
-19.000000000000057
30
2.2204460492503131e-15
11
-6.2399335968167327
21
-16.000000000000057
31
2.2204460492503131e-15
0
LWPOLYLINE
5
136
100
AcDbEntity
8
0
100
AcDbPolyline
90
4
70
1
43
0.0
10
-76.139933596816164
20
-13.549999999999986
10
-76.139933596816164
20
-1.44999999999999
10
-88.239933596816158
20
-1.4499999999999913
10
-88.239933596816158
20
-13.549999999999988
0
LWPOLYLINE
5
137
100
AcDbEntity
8
0
100
AcDbPolyline
90
4
70
1
43
0.0
10
-55.039933596816169
20
-13.550000000000006
10
-55.039933596816169
20
-1.4500000000000082
10
-67.139933596816178
20
-1.4500000000000091
10
-67.139933596816178
20
-13.550000000000006
0
LWPOLYLINE
5
138
100
AcDbEntity
8
0
100
AcDbPolyline
90
4
70
1
43
0.0
10
-25.339933596816159
20
-13.550000000000001
10
-25.339933596816159
20
-1.4500000000000033
10
-37.439933596816161
20
-1.4500000000000046
10
-37.439933596816161
20
-13.550000000000002
0
LWPOLYLINE
5
139
100
AcDbEntity
8
0
100
AcDbPolyline
90
4
70
1
43
0.0
10
-4.2399335968161642
20
-13.550000000000002
10
-4.2399335968161633
20
-1.4500000000000044
10
-16.339933596816163
20
-1.4500000000000046
10
-16.339933596816159
20
-13.550000000000002
0
ENDSEC
0
SECTION
2
OBJECTS
0
DICTIONARY
5
C
100
AcDbDictionary
3
ACAD_GROUP
350
D
3
ACAD_MLINESTYLE
350
17
0
DICTIONARY
5
D
100
AcDbDictionary
0
DICTIONARY
5
1A
330
C
100
AcDbDictionary
0
DICTIONARY
5
17
100
AcDbDictionary
0
ENDSEC
0
EOF
